<?xml version="1.0" encoding="UTF-8"?>
<!-- Tally Cloud Sync logo — blue cloud with a sync arrow loop. -->
<svg xmlns="http://www.w3.org/2000/svg" width="64" height="64" viewBox="0 0 64 64" fill="none">
    <defs>
        <linearGradient id="tcsGrad" x1="0" y1="0" x2="64" y2="64" gradientUnits="userSpaceOnUse">
            <stop stop-color="#2563EB"/>
            <stop offset="1" stop-color="#1D4ED8"/>
        </linearGradient>
    </defs>
    <rect width="64" height="64" rx="14" fill="url(#tcsGrad)"/>
    <path d="M44 38a8 8 0 0 0-1.4-15.9 11 11 0 0 0-21 2.2A7.5 7.5 0 0 0 22 38h22z"
          fill="#fff" fill-opacity="0.95"/>
    <path d="M28 44.5a6 6 0 0 0 9.5 1.5l1.5-1.5M38 38.5a6 6 0 0 0-9.5-1.5L27 38.5"
          stroke="#2563EB" stroke-width="2.4" stroke-linecap="round" stroke-linejoin="round"/>
    <path d="M39 41v-3.5h-3.5M27 42v3.5h3.5" stroke="#2563EB" stroke-width="2.4"
          stroke-linecap="round" stroke-linejoin="round"/>
</svg>
